<svg width="47" height="47" viewBox="0 0 47 47" fill="none" xmlns="http://www.w3.org/2000/svg">
<path d="M2 23.5C2 35.3741 11.6259 45 23.5 45C35.3741 45 45 35.3741 45 23.5C45 11.6259 35.3741 2 23.5 2" stroke="#D2AC47" stroke-width="3" stroke-linecap="round"/>
<path d="M23.5 6.29999C32.9993 6.29999 40.7 14.0007 40.7 23.5C40.7 32.9993 32.9993 40.7 23.5 40.7C18.9196 40.7 14.7574 38.9096 11.675 35.9904" stroke="#D2AC47" stroke-width="3" stroke-linecap="round"/>
<path d="M23.5 36.4C30.6245 36.4 36.4 30.6245 36.4 23.5C36.4 16.3755 30.6245 10.6 23.5 10.6" stroke="#D2AC47" stroke-width="3" stroke-linecap="round"/>
<path d="M23.5 14.9C28.2496 14.9 32.1 18.7503 32.1 23.5C32.1 26.0686 30.9739 28.3742 29.1885 29.95" stroke="#D2AC47" stroke-width="3" stroke-linecap="round"/>
</svg>
