<svg width="43" height="43" viewBox="0 0 43 43" fill="none" xmlns="http://www.w3.org/2000/svg">
<circle cx="21.5" cy="21.5" r="20" stroke="#D2AC47" stroke-width="3"/>
<path d="M21 9.94305V2C23.6822 2 26.3382 2.52831 28.8163 3.55476C30.0468 4.06444 31.2214 4.69199 32.3245 5.42688M21 9.94305L27.3883 3.55476M21 9.94305V16.7514M21 16.7514V22.425H22.1347M21 16.7514L32.3245 5.42688M32.3245 5.42688C33.4429 6.172 34.4878 7.02747 35.4427 7.98234C37.3393 9.87898 38.8438 12.1306 39.8702 14.6087C40.8967 17.0868 41.425 19.7427 41.425 22.425H34.975M22.1347 22.425L35.4427 9.11706M22.1347 22.425L28.525 22.425M28.525 22.425L38.2 12.75M28.525 22.425L34.975 22.425M34.975 22.425L40.35 17.05" stroke="#D2AC47" stroke-width="3"/>
</svg>
