<svg width="17" height="24" viewBox="0 0 17 24" fill="none" xmlns="http://www.w3.org/2000/svg">
<path fill-rule="evenodd" clip-rule="evenodd" d="M4.23797 1.12413C6.85982 -0.399273 10.0825 -0.372646 12.6797 1.19388C15.2514 2.79231 16.8145 5.64504 16.7999 8.71378C16.74 11.7624 15.064 14.6281 12.969 16.8434C11.7599 18.1278 10.4072 19.2635 8.93866 20.2274C8.78742 20.3148 8.62175 20.3734 8.44983 20.4001C8.28437 20.3931 8.12323 20.3442 7.98095 20.2579C5.73895 18.8096 3.77202 16.9609 2.17481 14.8008C0.838311 12.9977 0.0790033 10.8193 1.39409e-06 8.56135C-0.00173362 5.48673 1.61613 2.64754 4.23797 1.12413ZM5.75345 9.83405C6.19448 10.9213 7.23549 11.6305 8.3904 11.6305C9.147 11.636 9.87431 11.3329 10.4103 10.7889C10.9462 10.2449 11.2463 9.50507 11.2436 8.73436C11.2476 7.55794 10.555 6.49507 9.4892 6.04202C8.42336 5.58897 7.19452 5.83511 6.37644 6.66551C5.55837 7.49591 5.31243 8.74677 5.75345 9.83405Z" fill="#D2AC47"/>
<ellipse opacity="0.4" cx="8.39946" cy="22.8001" rx="6.00004" ry="1.20001" fill="#D2AC47"/>
</svg>
