<svg width="27" height="48" viewBox="0 0 27 48" fill="none" xmlns="http://www.w3.org/2000/svg">
<path d="M3 28.2007V45.4673H24L23.9487 36.05L3 28.2007Z" fill="#D2AC47" stroke="#D2AC47" stroke-width="5" stroke-miterlimit="10"/>
<path d="M12.5667 40.6007H13.0667V40.1007V36.6496L14.652 37.3078V42.1067H7.93333V34.7277L9.73333 35.3277V40.1007V40.6007H10.2333H12.5667Z" fill="#D2AC47" stroke="#D2AC47"/>
<path d="M18.782 43.04H17.2667V39.3899L18.782 39.8847V43.04Z" fill="#D2AC47" stroke="#D2AC47"/>
<path d="M18.6 13.4368L17.2667 13.7861V5.10067V4.74831L16.9348 4.6298L10.4015 2.29646L9.73333 2.05783V2.76733V18.1673V18.8504L10.3845 18.6439L21.932 14.9818V35.6276L20.6845 35.1011L20.5333 17.2298L20.5265 16.4284L19.8097 16.7868L18.8764 17.2535L18.6 17.3916V17.7007V33.4241L17.2679 33.1577L17.3133 18.1922L17.3155 17.4845L16.6477 17.7189L10.0677 20.0289L9.73333 20.1463V20.5007V30.0288L8.4 29.4955V21.434V20.7403L7.74189 20.9597L6.34189 21.4263L6 21.5403V21.9007V28.7269L5.13333 28.5103V20.7163L8.08167 19.5665L8.4 19.4423V19.1007V0.691795L18.6 4.06205V13.4368Z" fill="#D2AC47" stroke="#D2AC47"/>
<path d="M14.1853 33.1354L12.6373 32.5769V22.1916L14.1853 21.6132V33.1354Z" fill="#D2AC47" stroke="#D2AC47"/>
<path d="M12.6394 15.3676L12.6426 14.3228C12.6455 13.3111 12.649 11.9615 12.6513 10.61C12.6537 9.25853 12.6548 7.90464 12.6531 6.88459C12.6524 6.49613 12.6513 6.15551 12.6497 5.88162C12.8246 5.9499 13.0189 6.02679 13.2146 6.10475C13.535 6.23237 13.8567 6.36196 14.0985 6.45971L14.19 6.49678V14.7276C14.16 14.7407 14.1282 14.7545 14.0949 14.769C13.8595 14.871 13.547 15.0047 13.2346 15.1328C13.0251 15.2186 12.8197 15.3002 12.6394 15.3676ZM12.1486 15.5267C12.1486 15.5266 12.1499 15.5264 12.1523 15.5261C12.1497 15.5266 12.1485 15.5267 12.1486 15.5267Z" fill="#D2AC47" stroke="#D2AC47"/>
</svg>
